<svg xmlns="http://www.w3.org/2000/svg" shape-rendering="geometricPrecision" text-rendering="geometricPrecision" image-rendering="optimizeQuality" fill-rule="evenodd" clip-rule="evenodd" viewBox="0 0 456 512.323"><path d="M113.951 249.892c-15.769-5.149-27.744-12.801-36.118-22.765 24.187-9.111 35.324-37.684 36.887-80.456 1.162-31.789-5.434-52.831 5.408-84.207 21.464-62.112 97.701-79.061 144.667-45.63 34.672-3.695 69.969 12.81 77.506 66.278 5.623 39.915-6.312 76.054 6.282 112.828 5.419 15.82 14.825 27.926 29.551 35.003-9.439 9.026-23.115 15.01-39.518 19.011-12.492 3.051-34.904 5.401-61.058 6.83v10.871l-54.682 28.778-50.771-28.778v-10.339c-25.265-1.247-46.599-3.652-58.154-7.424zm53.603 157.642c5.368 0 10.426.841 15.17 2.529l-3.185 14.89-1.217.747c-1.622-.874-3.495-1.574-5.619-2.106-2.121-.532-4.089-.799-5.9-.799-3.808 0-6.556 1.112-8.24 3.328-1.687 2.215-2.529 5.914-2.529 11.096 0 6.057.966 10.474 2.901 13.251 1.939 2.78 4.963 4.169 9.085 4.169 1.749 0 3.699-.171 5.853-.518 2.153-.343 4.045-.827 5.666-1.45l1.498.937-1.498 14.795c-3.746 1.188-8.086 1.782-13.017 1.782-10.051 0-17.619-2.624-22.711-7.868-5.087-5.244-7.63-12.893-7.63-22.944 0-10.113 2.729-17.948 8.192-23.505 5.462-5.557 13.192-8.334 23.181-8.334zm66.911 29.591l18.261 32.029h-22.383l-3.185-7.398-5.43-9.832-6.931 10.768-2.995 6.462H192.79l17.98-29.125-18.542-31.468h22.474l3.28 7.588 5.339 9.551 6.085-10.583 2.81-6.556h19.573l-17.324 28.564zm57.731-29.686c8.805 0 15.609 2.605 20.415 7.82 4.807 5.212 7.212 12.566 7.212 22.055 0 10.488-2.638 18.604-7.915 24.347-5.273 5.743-12.751 8.615-22.426 8.615-8.805 0-15.609-2.635-20.416-7.912-4.81-5.276-7.211-12.751-7.211-22.43 0-10.364 2.638-18.37 7.911-24.019 5.277-5.652 12.755-8.476 22.43-8.476zm-1.687 14.985c-2.434 0-4.275.419-5.525 1.264-1.246.842-2.135 2.326-2.667 4.446-.532 2.125-.798 5.215-.798 9.271 0 5.182.284 9.118.845 11.8.562 2.686 1.513 4.559 2.857 5.62 1.341 1.06 3.324 1.592 5.944 1.592 2.434 0 4.278-.423 5.528-1.265 1.246-.841 2.136-2.339 2.668-4.493.532-2.154.794-5.262.794-9.318 0-5.12-.28-9.023-.842-11.709-.561-2.682-1.512-4.555-2.856-5.616-1.341-1.064-3.324-1.592-5.948-1.592zm-112.158-57.028h28.006l2.886-18.418h30.717l2.985 18.418h20.502l36.73-47.051-5.597-45.133c110.74 42.86 154.416 63.606 161.42 92.297h-.037l-.874 132.485c-.015 3.91-1.651 7.518-4.22 10.087-2.62 2.591-6.221 4.242-10.106 4.242H14.377c-3.911 0-7.529-1.625-10.135-4.231-2.58-2.58-4.22-6.162-4.22-10.124V365.509H0c4.377-43.268 25.983-43.745 151.519-92.297l-5.601 45.133 32.433 47.051zm261.276 16.296H16.319v114.334h422.549l.759-114.334zm-231.539-44.798L195.989 308.2c16.359-15.131 39.139-15.014 57.189 0l-14.012 28.694h-31.078z"/></svg>