<svg xmlns="http://www.w3.org/2000/svg" shape-rendering="geometricPrecision" text-rendering="geometricPrecision" image-rendering="optimizeQuality" fill-rule="evenodd" clip-rule="evenodd" viewBox="0 0 450 512.496"><path fill="#4D4D4D" fill-rule="nonzero" d="M225.011 0c58.458 0 111.392 23.706 149.703 62.017 38.312 38.311 62.017 91.246 62.017 149.703 0 58.458-23.705 111.393-62.017 149.704-38.311 38.311-91.245 62.016-149.703 62.016-58.451 0-111.392-23.705-149.703-62.016-38.311-38.311-62.017-91.252-62.017-149.704 0-58.457 23.706-111.392 62.017-149.703C113.619 23.706 166.553 0 225.011 0z"/><path fill="#fff" fill-rule="nonzero" d="M225.012 16.207c53.987 0 102.868 21.888 138.249 57.266 35.377 35.38 57.265 84.261 57.265 138.248 0 53.987-21.888 102.869-57.268 138.247-35.378 35.38-84.259 57.268-138.246 57.268-53.987 0-102.868-21.888-138.248-57.266-35.378-35.38-57.266-84.262-57.266-138.249 0-53.987 21.888-102.868 57.266-138.248 35.38-35.378 84.261-57.266 138.248-57.266z"/><path fill="#DA2031" fill-rule="nonzero" d="M225.012 32.746c98.845 0 178.976 80.128 178.976 178.975 0 98.845-80.131 178.976-178.976 178.976-98.847 0-178.975-80.131-178.975-178.976 0-98.847 80.128-178.975 178.975-178.975z"/><path fill="#0066B2" fill-rule="nonzero" d="M287.412 43.933V379.51c-19.429 7.229-40.453 11.187-62.4 11.187-21.942 0-42.956-3.955-62.381-11.18V43.925c19.425-7.224 40.439-11.179 62.381-11.179 21.947 0 42.971 3.958 62.4 11.187z"/><path fill="#FFD300" fill-rule="nonzero" d="M117.397 173.456l-.002-.299c-2.893 6.602-9.485 11.217-17.154 11.217-7.671 0-14.263-4.615-17.154-11.222l-.002.304c0 9.475 7.681 17.156 17.156 17.156 9.478 0 17.156-7.681 17.156-17.156z"/><path fill="#FFD300" fill-rule="nonzero" d="M112.719 168.775c0-6.89-5.585-12.479-12.478-12.479-6.89 0-12.479 5.589-12.479 12.479 0 6.893 5.589 12.478 12.479 12.478 6.893 0 12.478-5.585 12.478-12.478zM84.644 259.241h31.196l-15.599 9.36zM84.644 249.882h31.196v6.241H84.644zM84.644 206.211h31.196v6.238H84.644zM84.644 193.732h31.196l-15.599 9.358zM118.96 193.732h15.596v74.869H118.96zM65.926 193.732h15.598v74.869H65.926zM101.552 128.221c-1.55.706-2.129 1.973-2.253 3.235-.079 1.065.39 2.264.437 3.304 0 1.789-1.851 2.378-1.851 4.934 0 .879.811 1.846.811 4.126-.142 1.197-.809 1.465-1.561 1.56-.859 0-1.56-.698-1.56-1.56.003-.4.156-.784.433-1.074.051-.054.102-.108.16-.156.354-.359.843-.496.84-1.443 0-.488-.315-.93-.617-1.792-.284-.838-.079-2.234.598-3.059-1.092.422-1.765 1.467-2.107 2.407-.364 1.155-.046 1.819-.542 2.778-.305.621-.664.879-1.006 1.397-.403.564-.879 1.885-.879 2.498a7.8 7.8 0 0015.599 0c0-.613-.469-1.934-.872-2.498-.342-.518-.708-.776-1.011-1.397-.49-.959-.175-1.623-.537-2.778-.344-.94-1.016-1.985-2.109-2.407.676.825.884 2.221.598 3.059-.303.862-.62 1.304-.62 1.789 0 .948.486 1.087.842 1.446.056.048.107.102.157.156a1.558 1.558 0 01-1.126 2.634c-.864-.11-1.482-.512-1.56-1.56 0-3.003 1.284-3.196 1.284-5.418 0-3.171-2.844-4.675-2.844-6.992 0-.789.183-2.127 1.296-3.191v.002zM115.84 231.165c0-5.935-3.316-11.094-8.192-13.731a9.165 9.165 0 011.797 5.464c0 5.081-4.123 9.203-9.204 9.203a7.332 7.332 0 000 14.663c8.614 0 15.599-6.985 15.599-15.599zm-15.599-15.596c-8.614 0-15.597 6.983-15.597 15.596 0 5.933 3.314 11.095 8.192 13.732a9.18 9.18 0 01-1.797-5.465c0-5.08 4.121-9.204 9.202-9.204a7.332 7.332 0 007.332-7.33 7.331 7.331 0 00-7.332-7.329z"/><path fill="#DA2032" fill-rule="nonzero" d="M103.361 222.898a3.118 3.118 0 00-6.238 0 3.12 3.12 0 106.238 0zM103.361 239.432a3.12 3.12 0 10-3.12 3.121 3.12 3.12 0 003.12-3.121z"/><path fill="#4D4D4D" fill-rule="nonzero" d="M47.416 325.366h355.162c14.727 0 24.974 11.904 26.939 26.939L450 485.557c0 14.727-12.213 26.939-26.94 26.939H26.933C12.158 512.496 0 500.332 0 485.557l20.483-133.252c3.367-15.682 12.877-26.933 26.933-26.939z"/><path fill="#fff" d="M45.542 336.273h358.93c7.761 0 13.066 6.961 14.14 14.141l20.485 137.039c1.074 7.188-6.854 14.141-14.14 14.141H25.065c-7.286 0-15.291-6.444-14.14-14.141l20.476-137.039c1.151-7.697 6.397-14.141 14.141-14.141z"/><path fill="#333" fill-rule="nonzero" d="M141.673 400.753h-9.329V362.36h11.422l6.218 20.514 6.219-20.514h11.424v38.393h-9.271v-24.398l-4.783 16.085h-7.175l-4.725-15.965v24.278zm50.291 0l-1.197-5.74h-9.209l-1.255 5.74h-10.286l9.866-38.393h12.737l9.869 38.393h-10.525zm-8.792-13.154h5.982l-2.93-13.815-3.052 13.815zm22.308-25.239h17.64c5.86 0 8.792 2.474 8.792 7.418v23.56c0 4.945-2.932 7.415-8.792 7.415h-17.64V362.36zm15.965 30.199v-22.005c0-.876-.498-1.316-1.494-1.316h-4.006v24.638h4.006c.996 0 1.494-.437 1.494-1.317zm25.536.718h13.096v7.476h-23.56V362.36h23.023v7.476h-12.559v7.835h10.823v7.474h-10.823v8.132zm28.346-30.917h10.464v38.393h-10.464V362.36zm32.77 0h9.568v38.393h-8.97l-8.55-20.152v20.152h-9.568V362.36h8.97l8.55 20.514V362.36z"/><path fill="#DA2031" fill-rule="nonzero" d="M74.439 475.513H61.374v-53.762h15.995l8.709 28.724 8.709-28.724h15.994v53.762H97.802v-34.167l-6.7 22.525H81.053l-6.614-22.357v33.999zm55.1-53.762h12.393c8.208 0 12.311 3.462 12.311 10.383v32.995c0 6.922-4.103 10.384-12.311 10.384h-12.393c-8.206 0-12.31-3.462-12.31-10.384v-32.995c0-6.921 4.104-10.383 12.31-10.383zm10.049 41.452v-29.142c0-1.229-.698-1.844-2.094-1.844h-3.516c-1.397 0-2.095.615-2.095 1.844v29.142c0 1.228.698 1.843 2.095 1.843h3.516c1.396 0 2.094-.615 2.094-1.843zm45.64-41.452h13.396v53.762h-12.559l-11.975-28.222v28.222h-13.4v-53.762h12.562l11.976 28.724v-28.724zm56.189 18.423h-14.654v-6.951c0-1.228-.698-1.843-2.095-1.843h-3.015c-1.394 0-2.093.615-2.093 1.843v30.817c0 1.228.699 1.843 2.093 1.843h3.015c1.397 0 2.095-.615 2.095-1.843v-8.96h-4.187v-9.295h18.841v19.344c0 6.922-4.105 10.384-12.31 10.384h-11.893c-8.206 0-12.31-3.462-12.31-10.384v-32.995c0-6.921 4.104-10.383 12.31-10.383h11.893c8.205 0 12.31 3.462 12.31 10.383v8.04zm17.92-18.423h12.394c8.208 0 12.31 3.462 12.31 10.383v32.995c0 6.922-4.102 10.384-12.31 10.384h-12.394c-8.205 0-12.31-3.462-12.31-10.384v-32.995c0-6.921 4.105-10.383 12.31-10.383zm10.05 41.452v-29.142c0-1.229-.698-1.844-2.095-1.844h-3.516c-1.397 0-2.095.615-2.095 1.844v29.142c0 1.228.698 1.843 2.095 1.843h3.516c1.397 0 2.095-.615 2.095-1.843zm35.756 1.843h16.665v10.467h-31.319v-53.762h14.654v43.295zm20.015-43.295h14.654v53.762h-14.654v-53.762zm48.738 53.762l-1.675-8.04h-12.896l-1.76 8.04h-14.403l13.817-53.762h17.837l13.817 53.762h-14.737zm-12.31-18.424h8.374l-4.104-19.344-4.27 19.344z"/></svg>