<svg xmlns="http://www.w3.org/2000/svg" shape-rendering="geometricPrecision" text-rendering="geometricPrecision" image-rendering="optimizeQuality" fill-rule="evenodd" clip-rule="evenodd" viewBox="0 0 512 474.177"><path fill="#4D4D4D" fill-rule="nonzero" d="M255.999 0c54.087 0 103.063 21.933 138.51 57.38 35.447 35.446 57.38 84.423 57.38 138.51 0 54.087-21.933 103.064-57.38 138.511-35.447 35.446-84.423 57.38-138.51 57.38-54.082 0-103.064-21.934-138.511-57.38-35.447-35.447-57.38-84.429-57.38-138.511 0-54.087 21.933-103.064 57.38-138.51C152.935 21.933 201.912 0 255.999 0z"/><path fill="#fff" fill-rule="nonzero" d="M256 14.995c49.95 0 95.177 20.252 127.912 52.984 32.732 32.735 52.984 77.962 52.984 127.912s-20.252 95.177-52.987 127.91C351.177 356.535 305.95 376.787 256 376.787c-49.951 0-95.178-20.252-127.913-52.984-32.732-32.735-52.984-77.962-52.984-127.912s20.252-95.177 52.984-127.912C160.822 35.247 206.049 14.995 256 14.995z"/><path fill="#012169" fill-rule="nonzero" d="M256 30.297c91.454 0 165.594 74.137 165.594 165.594 0 91.455-74.14 165.594-165.594 165.594-91.457 0-165.594-74.139-165.594-165.594 0-91.457 74.137-165.594 165.594-165.594z"/><path fill="#fff" fill-rule="nonzero" d="M107.694 122.17l25.185-12.599v36.921h40.381v-36.866l73.735 36.866h27.022V132.902l-53.429-26.715 53.429-.002V65.808h-53.646l53.721-26.87v-7.654A167.311 167.311 0 00256 30.297c-7.294 0-14.481.477-21.526 1.392L173.26 62.307v-9.885c-28.128 16.26-51.028 40.555-65.566 69.748z"/><path fill="#C8102E" fill-rule="nonzero" d="M116.838 106.111h13.879l-19.802 9.91a165.922 165.922 0 015.923-9.91zM256 30.297c2.67 0 5.324.07 7.965.195l-70.631 35.316h-17.991l70.288-35.179c3.429-.212 6.885-.332 10.369-.332zM122.379 98.08a166.56 166.56 0 0142.774-40.648v16.405h108.864V98.08H165.153v48.412H140.91V98.08h-18.531zm151.713 48.412l-80.758-40.381h18.067l62.616 31.345v9.036h.075z"/><path fill="#fff" fill-rule="nonzero" d="M366.007 113.009l11.484-8.362h-14.199l-4.408-13.513-4.405 13.513h-14.202l11.487 8.362-4.384 13.566 11.504-8.379 11.505 8.379z"/><path fill="#C7202F" fill-rule="nonzero" d="M363.562 112.266l7.598-5.536h-9.388l-2.888-8.955-2.887 8.955h-9.39l7.584 5.525-2.951 8.914 7.635-5.505 7.575 5.505z"/><path fill="#fff" fill-rule="nonzero" d="M413.972 155.137l2.155-1.561a164.864 164.864 0 00-1.658-5.848h-2.912l-3.956-12.043-3.894 12.043h-12.628l10.22 7.441-3.888 12.015 10.202-7.427 10.258 7.427-3.899-12.047z"/><path fill="#C7202F" fill-rule="nonzero" d="M411.598 154.382l3.966-2.889-.474-1.68h-4.99l-2.499-7.491-2.435 7.491h-7.755l6.273 4.572-2.412 7.473 6.37-4.604 6.37 4.604z"/><path fill="#fff" fill-rule="nonzero" d="M309.108 170.236l11.482-8.302h-14.177l-4.432-13.587-4.371 13.587h-14.236l11.529 8.338-4.425 13.511 11.503-8.376 11.505 8.376z"/><path fill="#C7202F" fill-rule="nonzero" d="M306.684 169.518l7.651-5.576h-9.467l-2.887-8.959-2.887 8.959h-9.386l7.602 5.542-2.892 8.975 7.602-5.542 7.605 5.542z"/><path fill="#fff" fill-rule="nonzero" d="M366.793 260.977l12.784-9.249h-15.793l-4.9-15.058-4.902 15.058h-15.79l12.782 9.246-4.907 15.075 12.817-9.333 12.816 9.333z"/><path fill="#C7202F" fill-rule="nonzero" d="M364.351 260.231l8.896-6.42h-10.981l-3.382-10.5-3.44 10.5h-10.92l8.835 6.42-3.352 10.412 8.848-6.429 8.909 6.429z"/><path fill="#4D4D4D" fill-rule="nonzero" d="M43.871 301.039h424.252c13.626 0 23.108 11.014 24.926 24.925L512 449.253c0 13.626-11.299 24.924-24.925 24.924H24.92C11.249 474.177 0 462.923 0 449.253l18.951-123.289c3.116-14.51 11.915-24.92 24.92-24.925z"/><path fill="#fff" d="M42.122 311.13h427.757c7.185 0 12.066 6.283 13.083 13.084l18.954 126.793c1.017 6.809-6.187 13.083-13.083 13.083H23.176c-6.895 0-14.147-5.962-13.083-13.083l18.946-126.793c1.065-7.122 5.91-13.084 13.083-13.084z"/><path fill="#333" fill-rule="nonzero" d="M178.899 370.79h-8.632v-35.523h10.568l5.753 18.98 5.754-18.98h10.57v35.523h-8.578v-22.574l-4.425 14.882h-6.639l-4.371-14.772v22.464zm46.53 0l-1.107-5.311h-8.521l-1.161 5.311h-9.517l9.129-35.523h11.785l9.13 35.523h-9.738zm-8.134-12.172h5.534l-2.711-12.781-2.823 12.781zm20.64-23.351h16.321c5.421 0 8.134 2.289 8.134 6.863v21.799c0 4.575-2.713 6.861-8.134 6.861h-16.321v-35.523zm14.771 27.942v-20.361c0-.81-.461-1.217-1.382-1.217h-3.707v22.795h3.707c.921 0 1.382-.404 1.382-1.217zm23.627.664h12.117v6.917h-21.799v-35.523h21.302v6.917h-11.62v7.249h10.014v6.915h-10.014v7.525zm26.226-28.606h9.682v35.523h-9.682v-35.523zm30.32 0h8.853v35.523h-8.299l-7.911-18.646v18.646h-8.853v-35.523h8.299l7.911 18.98v-18.98z"/><path fill="#012169" fill-rule="nonzero" d="M68.887 390.217h12.395v49.743h-11.62l-11.081-26.112v26.112H46.184v-49.743h11.622l11.081 26.577v-26.577zm32.152 40.058h16.969v9.685H87.48v-49.743h29.83v9.684h-16.271v10.152h14.023v9.684h-14.023v10.538zm68.724-40.058h13.405L172.63 439.96h-15.573l-5.501-29.677-5.501 29.677h-15.573l-10.538-49.743h14.1l4.186 33.471 6.662-33.471h13.249l6.664 33.471 4.958-33.471zm64.078 0v9.684l-18.672 30.374h18.13v9.685h-32.31v-9.685l18.673-30.374h-17.665v-9.684h31.844zm18.208 40.058h16.969v9.685H238.49v-49.743h29.83v9.684h-16.271v10.152h14.023v9.684h-14.023v10.538zm46.566 9.685l-1.55-7.439h-11.931l-1.629 7.439h-13.326l12.784-49.743h16.504l12.783 49.743h-13.635zm-11.39-17.047h7.749l-3.798-17.897-3.951 17.897zm41.683 7.362h15.42v9.685H315.35v-49.743h13.558v40.058zm43.856 9.685l-1.55-7.439h-11.932l-1.629 7.439h-13.325l12.783-49.743h16.504l12.784 49.743h-13.635zm-11.39-17.047h7.748l-3.797-17.897-3.951 17.897zm50.827-32.696h12.395v49.743h-11.62l-11.081-26.112v26.112h-12.397v-49.743h11.622l11.081 26.577v-26.577zm19.368 0h22.856c7.593 0 11.39 3.203 11.39 9.607v30.528c0 6.404-3.797 9.608-11.39 9.608h-22.856v-49.743zm20.688 39.127v-28.512c0-1.137-.646-1.706-1.939-1.706h-5.19v31.924h5.19c1.293 0 1.939-.569 1.939-1.706z"/></svg>