<svg xmlns="http://www.w3.org/2000/svg" shape-rendering="geometricPrecision" text-rendering="geometricPrecision" image-rendering="optimizeQuality" fill-rule="evenodd" clip-rule="evenodd" viewBox="0 0 512 512"><path fill="#4D4D4D" fill-rule="nonzero" d="M256 0c58.401 0 111.284 23.683 149.558 61.957 38.274 38.274 61.957 91.157 61.957 149.558 0 58.402-23.683 111.285-61.957 149.559S314.401 423.031 256 423.031c-58.395 0-111.284-23.683-149.559-61.957-38.274-38.274-61.956-91.163-61.956-149.559 0-58.401 23.682-111.284 61.956-149.558C144.716 23.683 197.599 0 256 0z"/><path fill="#fff" fill-rule="nonzero" d="M256.001 16.192c53.934 0 102.769 21.866 138.114 57.21 35.343 35.346 57.211 84.18 57.211 138.114 0 53.935-21.868 102.769-57.213 138.113-35.343 35.346-84.178 57.212-138.112 57.212-53.935 0-102.769-21.866-138.115-57.21-35.343-35.346-57.21-84.18-57.21-138.115 0-53.934 21.867-102.768 57.21-138.114 35.346-35.344 84.18-57.21 138.115-57.21z"/><path fill="#fff" fill-rule="nonzero" d="M256.001 32.714c98.749 0 178.802 80.051 178.802 178.802 0 98.75-80.053 178.802-178.802 178.802-98.752 0-178.802-80.052-178.802-178.802 0-98.751 80.05-178.802 178.802-178.802z"/><path fill="#063" fill-rule="nonzero" d="M255.949 32.714v357.604c-98.727-.026-178.75-80.07-178.75-178.802 0-98.734 80.023-178.775 178.75-178.802z"/><path fill="#4D4D4D" fill-rule="nonzero" d="M104.412 325.051h303.172c14.713 0 24.951 11.892 26.913 26.913l20.463 133.123c0 14.713-12.2 26.913-26.913 26.913H83.949c-14.761 0-26.907-12.152-26.907-26.913l20.463-133.123c3.364-15.667 12.865-26.907 26.907-26.913z"/><path fill="#fff" d="M102.502 335.948h306.995c7.759 0 13.012 6.68 14.127 14.126l20.466 136.907c1.115 7.455-6.578 14.127-14.127 14.127H82.045c-7.548 0-15.276-6.437-14.126-14.127l20.457-136.907c1.149-7.689 6.381-14.126 14.126-14.126z"/><path fill="#333" fill-rule="nonzero" d="M172.75 400.366h-9.32V362.01h11.41l6.213 20.493 6.212-20.493h11.413v38.356h-9.261v-24.375l-4.779 16.069h-7.168l-4.72-15.95v24.256zm50.242 0l-1.196-5.735h-9.2l-1.254 5.735h-10.276l9.857-38.356h12.725l9.859 38.356h-10.515zm-8.784-13.143h5.976l-2.927-13.801-3.049 13.801zm22.287-25.213h17.623c5.854 0 8.783 2.47 8.783 7.41v23.538c0 4.939-2.929 7.408-8.783 7.408h-17.623V362.01zm15.95 30.169v-21.984c0-.875-.498-1.314-1.493-1.314h-4.003v24.613h4.003c.995 0 1.493-.436 1.493-1.315zm25.511.718h13.083v7.469h-23.538V362.01h23.002v7.468h-12.547v7.828h10.812v7.466h-10.812v8.125zm28.318-30.887h10.454v38.356h-10.454V362.01zm32.738 0h9.56v38.356h-8.962l-8.542-20.133v20.133h-9.559V362.01h8.961l8.542 20.493V362.01z"/><path fill="#063" fill-rule="nonzero" d="M152.054 475.052l-1.673-8.032h-12.884l-1.759 8.032H121.35l13.803-53.71h17.82l13.804 53.71h-14.723zm-12.298-18.405h8.366l-4.1-19.326-4.266 19.326zm45.007 7.949h16.65v10.456h-31.29v-53.71h14.64v43.254zm56.054-24.848h-14.64v-6.944c0-1.227-.697-1.842-2.092-1.842h-3.013c-1.393 0-2.09.615-2.09 1.842v30.787c0 1.226.697 1.841 2.09 1.841h3.013c1.395 0 2.092-.615 2.092-1.841v-8.952h-4.183v-9.286h18.823v19.326c0 6.915-4.1 10.373-12.298 10.373h-11.881c-8.198 0-12.298-3.458-12.298-10.373v-32.963c0-6.915 4.1-10.374 12.298-10.374h11.881c8.198 0 12.298 3.459 12.298 10.374v8.032zm20.496 24.848h18.323v10.456h-32.963v-53.71h32.209v10.457h-17.569v10.962h15.143v10.456h-15.143v11.379zm37.563-8.618v19.074h-14.64v-53.71h24.848c8.198 0 12.298 3.459 12.298 10.374v13.889c0 5.297-2.4 8.561-7.195 9.788l9.871 19.659H308.33l-8.532-19.074h-.922zm5.774-24.179h-5.774v14.223h5.774c1.395 0 2.09-.613 2.09-1.84v-10.541c0-1.228-.695-1.842-2.09-1.842zm22.588-10.457h14.64v53.71h-14.64v-53.71zm48.691 53.71l-1.673-8.032h-12.884l-1.758 8.032h-14.389l13.803-53.71h17.821l13.803 53.71h-14.723zm-12.298-18.405h8.366l-4.1-19.326-4.266 19.326z"/><path fill="#D21034" fill-rule="nonzero" d="M338.661 200.521l-82.712-26.875 51.12 70.357v-86.968l-51.12 70.36z"/><path fill="#D21034" fill-rule="nonzero" d="M335.141 154.799c-16.315-28.285-46.526-45.722-79.192-45.722-50.495 0-91.443 40.948-91.443 91.444 0 50.493 40.948 91.443 91.443 91.443 32.666 0 62.865-17.427 79.197-45.716a73.207 73.207 0 01-57.11 27.428c-40.397 0-73.155-32.76-73.155-73.155 0-40.397 32.758-73.155 73.155-73.155a73.165 73.165 0 0157.105 27.435v-.002z"/></svg>