<svg xmlns="http://www.w3.org/2000/svg" shape-rendering="geometricPrecision" text-rendering="geometricPrecision" image-rendering="optimizeQuality" fill-rule="evenodd" clip-rule="evenodd" viewBox="0 0 481 512.23"><path fill="#4D4D4D" fill-rule="nonzero" d="M240.483 0c49.663 0 94.634 20.14 127.182 52.687 32.548 32.548 52.688 77.52 52.688 127.183 0 49.664-20.14 94.635-52.688 127.183s-77.519 52.687-127.182 52.687c-49.659 0-94.635-20.139-127.183-52.687S60.613 229.528 60.613 179.87c0-49.663 20.139-94.635 52.687-127.183C145.848 20.14 190.819 0 240.483 0z"/><path fill="#fff" fill-rule="nonzero" d="M240.483 13.769c45.866 0 87.394 18.595 117.451 48.651 30.056 30.057 48.651 71.586 48.651 117.451 0 45.865-18.595 87.393-48.653 117.449-30.055 30.057-71.583 48.653-117.449 48.653-45.865 0-87.393-18.596-117.451-48.651-30.055-30.058-48.65-71.586-48.65-117.451 0-45.865 18.595-87.394 48.65-117.451 30.058-30.056 71.586-48.651 117.451-48.651z"/><path fill="#002395" fill-rule="nonzero" d="M240.483 27.82c83.975 0 152.051 68.074 152.051 152.051 0 83.975-68.076 152.051-152.051 152.051-83.977 0-152.051-68.076-152.051-152.051 0-83.977 68.074-152.051 152.051-152.051z"/><path fill="#FECB00" fill-rule="nonzero" d="M364.132 91.368v177.004a152.92 152.92 0 01-35.948 35.72L116.266 92.164c27.536-38.927 72.905-64.344 124.217-64.344 50.96 0 96.06 25.069 123.649 63.548z"/><path fill="#fff" fill-rule="nonzero" d="M309.852 315.21a151.706 151.706 0 01-6.893 3.323l3.985-12.263 2.908 8.94zm-31.306 11.908l-.235.058-.081-.058h.316zM94.004 138.969c.983-3.526 2.091-7 3.316-10.419h39.77l-46.471 33.757 17.755-54.607 17.758 54.607-32.128-23.338zm155.482 182.206l17.74-54.608 17.758 54.608-46.471-33.758h57.429l-46.456 33.758zm-39.718-39.717l17.758-54.608 17.741 54.608-46.471-33.758h57.443l-46.471 33.758zm-39.717-39.717l17.758-54.606 17.757 54.606-46.473-33.758h57.429l-46.471 33.758zm-39.717-39.717l17.757-54.606 17.758 54.606-46.471-33.758h57.429l-46.473 33.758z"/><path fill="#4D4D4D" fill-rule="nonzero" d="M40.283 276.419h400.429c12.512 0 21.217 10.113 22.887 22.887L481 489.344c0 12.511-10.375 22.886-22.887 22.886H22.882C10.329 512.23 0 501.896 0 489.344l17.402-190.038c2.86-13.323 10.939-22.882 22.881-22.887z"/><path fill="#fff" d="M38.613 285.686h403.772c6.597 0 11.457 5.859 12.013 12.013l17.404 193.254c.556 6.164-5.812 12.013-12.013 12.013H21.216c-6.201 0-12.605-5.427-12.013-12.013l17.396-193.254c.593-6.587 5.427-12.013 12.014-12.013z"/><path fill="#333" fill-rule="nonzero" d="M169.704 344.328h-7.925v-32.617h9.703l5.283 17.427 5.283-17.427h9.706v32.617h-7.876V323.6l-4.064 13.665h-6.096l-4.014-13.563v20.626zm42.726 0l-1.017-4.876h-7.824l-1.066 4.876h-8.739l8.382-32.617h10.821l8.385 32.617h-8.942zm-7.47-11.176h5.082l-2.489-11.736-2.593 11.736zm18.953-21.441h14.986c4.978 0 7.469 2.101 7.469 6.301v20.017c0 4.2-2.491 6.299-7.469 6.299h-14.986v-32.617zm13.563 25.656v-18.695c0-.745-.423-1.118-1.27-1.118h-3.403v20.931h3.403c.847 0 1.27-.372 1.27-1.118zm21.694.61h11.126v6.351H250.28v-32.617h19.56v6.351h-10.67v6.656h9.195v6.35h-9.195v6.909zm24.082-26.266h8.89v32.617h-8.89v-32.617zm27.84 0h8.129v32.617H311.6l-7.264-17.121v17.121h-8.129v-32.617h7.621l7.264 17.427v-17.427z"/><path fill="#002395" fill-rule="nonzero" d="M95.333 381.884v-7.399c0-1.043-.591-1.566-1.778-1.566h-5.123v10.531h5.123c1.187 0 1.778-.523 1.778-1.566zm0 18.782v-7.469c0-1.043-.591-1.566-1.778-1.566h-5.123v10.601h5.123c1.187 0 1.778-.522 1.778-1.566zm-19.136-35.928h20.916c6.971 0 10.458 2.942 10.458 8.822v5.835c0 4.126-1.139 6.805-3.416 8.037 1.329.571 2.23 1.436 2.705 2.597.473 1.164.711 2.741.711 4.732v6.83c0 5.881-3.487 8.822-10.458 8.822H76.197v-45.675zm46.954 0h10.529c6.973 0 10.458 2.942 10.458 8.822v28.031c0 5.881-3.485 8.822-10.458 8.822h-10.529c-6.972 0-10.458-2.941-10.458-8.822V373.56c0-5.88 3.486-8.822 10.458-8.822zm8.537 35.217v-24.758c0-1.043-.593-1.566-1.779-1.566h-2.987c-1.187 0-1.78.523-1.78 1.566v24.758c0 1.043.593 1.566 1.78 1.566h2.987c1.186 0 1.779-.523 1.779-1.566zm35.43 0v-6.474c0-1.043-.593-1.566-1.78-1.566h-6.83c-3.509 0-5.986-.769-7.434-2.311-1.446-1.543-2.17-3.76-2.17-6.652v-9.392c0-5.88 3.462-8.822 10.388-8.822h9.747c6.923 0 10.385 2.942 10.385 8.822v5.478h-12.449v-3.841c0-1.043-.593-1.566-1.78-1.566h-2.062c-1.186 0-1.779.523-1.779 1.566v6.758c0 1.043.593 1.566 1.779 1.566h6.688c3.509 0 6.011.734 7.504 2.205 1.496 1.47 2.242 3.627 2.242 6.473v9.392c0 5.881-3.461 8.822-10.387 8.822h-9.674c-6.974 0-10.459-2.941-10.459-8.822v-5.478h12.45v3.842c0 1.043.593 1.566 1.777 1.566h2.064c1.187 0 1.78-.523 1.78-1.566zm38.276-35.217h11.381v45.675h-10.67l-10.174-23.976v23.976h-11.383v-45.675h10.672l10.174 24.404v-24.404zm17.073 0h12.449v45.675h-12.449v-45.675zm41.406 45.675l-1.424-6.831h-10.955l-1.496 6.831h-12.236l11.738-45.675h15.154l11.739 45.675h-12.52zm-10.459-15.652h7.115l-3.487-16.434-3.628 16.434zm63.318 15.652l-1.423-6.831h-10.956l-1.496 6.831h-12.235l11.738-45.675h15.154l11.738 45.675h-12.52zm-10.458-15.652h7.114l-3.487-16.434-3.627 16.434zm46.67-30.023h11.381v45.675h-10.67l-10.174-23.976v23.976h-11.383v-45.675h10.672l10.174 24.404v-24.404zm17.784 0h20.987c6.971 0 10.459 2.942 10.459 8.822v28.031c0 5.881-3.488 8.822-10.459 8.822h-20.987v-45.675zm18.996 35.928v-26.181c0-1.043-.593-1.566-1.78-1.566h-4.766v29.313h4.766c1.187 0 1.78-.522 1.78-1.566zM74.346 429.969h12.236v45.674H74.346v-18.07h-8.964v18.07H53.146v-45.674h12.236v18.711h8.964v-18.711zm30.377 36.782h15.582v8.892H92.274v-45.674h27.39v8.892h-14.941v9.321H117.6v8.893h-12.877v9.676zm31.943-7.328v16.22h-12.449v-45.674h21.13c6.971 0 10.458 2.941 10.458 8.822v11.81c0 4.505-2.041 7.281-6.119 8.324l8.395 16.718h-13.375l-7.256-16.22h-.784zm4.91-20.562h-4.91v12.095h4.91c1.186 0 1.777-.521 1.777-1.564v-8.965c0-1.043-.591-1.566-1.777-1.566zm47.952-8.892v8.892l-17.146 27.89h16.648v8.892h-29.668v-8.892l17.146-27.89h-16.22v-8.892h29.24zm16.718 36.782h15.582v8.892h-28.031v-45.674h27.39v8.892h-14.941v9.321h12.877v8.893h-12.877v9.676zm50.157-21.13h-12.449v-5.906c0-1.043-.594-1.565-1.78-1.565h-2.562c-1.184 0-1.777.522-1.777 1.565v26.181c0 1.044.593 1.566 1.777 1.566h2.562c1.186 0 1.78-.522 1.78-1.566v-7.612h-3.558v-7.896h16.007v16.434c0 5.88-3.487 8.821-10.458 8.821h-10.104c-6.971 0-10.458-2.941-10.458-8.821v-28.031c0-5.881 3.487-8.822 10.458-8.822h10.104c6.971 0 10.458 2.941 10.458 8.822v6.83zm15.225-15.652h10.529c6.973 0 10.458 2.941 10.458 8.822v28.031c0 5.88-3.485 8.821-10.458 8.821h-10.529c-6.972 0-10.458-2.941-10.458-8.821v-28.031c0-5.881 3.486-8.822 10.458-8.822zm8.537 35.216v-24.758c0-1.043-.593-1.566-1.779-1.566h-2.987c-1.187 0-1.78.523-1.78 1.566v24.758c0 1.043.593 1.566 1.78 1.566h2.987c1.186 0 1.779-.523 1.779-1.566zm39.556-35.216h12.947l-11.24 45.674h-14.443l-11.24-45.674h12.949l5.478 30.52 5.549-30.52zm16.291 0h12.449v45.674h-12.449v-45.674zm38.987 0h11.381v45.674h-10.669l-10.175-23.976v23.976h-11.383v-45.674h10.672l10.174 24.403v-24.403zm40.337 45.674l-1.423-6.83h-10.956l-1.495 6.83h-12.236l11.738-45.674h15.154l11.738 45.674h-12.52zm-10.458-15.652h7.115l-3.487-16.434-3.628 16.434z"/></svg>